<svg height="49" width="39" xmlns="http://www.w3.org/2000/svg" xmlns:xlink="http://www.w3.org/1999/xlink"><linearGradient id="a"><stop offset="0" stop-color="#14e4c8"/><stop offset="1" stop-color="#0a6cf5"/></linearGradient><linearGradient id="b" x1="50%" x2="50%" xlink:href="#a" y1="0%" y2="100%"/><linearGradient id="c" x1="50%" x2="50%" xlink:href="#a" y1="0%" y2="345.267%"/><g fill="none" fill-rule="evenodd"><path d="m15.71 14.02c-4.004 4.196-13.426 14.928-13.426 19 0 7.168 7.626 13 17 13s17-5.832 17-13c0-4.074-9.422-14.804-13.426-19zm3.574 34c-10.476 0-19-6.728-19-15 0-5.732 12.818-19.18 14.282-20.694a.989.989 0 0 1 .718-.306h8c.272 0 .532.11.718.306 1.464 1.514 14.282 14.962 14.282 20.694 0 8.272-8.524 15-19 15z" fill="url(#b)" transform="translate(.342 .04)"/><path d="m15.638 12.02h7.292c2.996-2.438 7.524-6.816 7.706-8.902.024-.292-.062-.392-.102-.436-.64-.388-3.88 1.154-6.668 3.15a.989.989 0 0 1 -.768.17.993.993 0 0 1 -.654-.44c-1.136-1.756-2.656-3.446-3.186-3.544-.48.098-2 1.788-3.134 3.544a.993.993 0 0 1 -.654.44.995.995 0 0 1 -.768-.17c-3.058-2.19-6.102-3.492-6.68-3.14-.028.034-.114.134-.09.426.182 2.086 4.71 6.464 7.706 8.902zm7.646 2h-8c-.226 0-.448-.078-.624-.218-.858-.686-8.398-6.808-8.72-10.512-.066-.75.14-1.418.594-1.932 1.662-1.886 6.006.586 8.488 2.262 1.138-1.62 2.826-3.6 4.262-3.6s3.124 1.98 4.262 3.6c2.482-1.674 6.824-4.148 8.488-2.262.454.514.66 1.182.594 1.932-.322 3.704-7.862 9.826-8.718 10.512-.178.14-.4.218-.626.218z" fill="url(#c)" transform="translate(.342 .04)"/><path d="m27.626 14.059h-16a1 1 0 0 1 0-2h16a1 1 0 0 1 0 2" fill="#14ddcb"/><g fill="url(#b)"><path d="m19.28 37.02c-2.666 0-4.812-1.6-4.992-3.724a1 1 0 0 1 .912-1.08c.492-.062 1.036.358 1.08.912.088 1.042 1.434 1.892 3 1.892 1.63 0 3.004-.916 3.004-2 0-.974-.948-1.604-2.98-1.978l-.22-.042c-3.244-.598-4.8-1.926-4.8-3.98 0-2.206 2.244-4 5.004-4 2.666 0 4.812 1.6 4.992 3.722a1 1 0 0 1 -.912 1.082c-.508.04-1.036-.36-1.08-.912-.088-1.044-1.434-1.892-3-1.892-1.628 0-3.004.916-3.004 2 0 .976.95 1.604 2.988 1.98l.22.042c3.24.598 4.792 1.926 4.792 3.978 0 2.206-2.244 4-5.004 4" transform="translate(.342 .04)"/><path d="m19.426 39.02c-.473 0-.858-.448-.858-1v-16c0-.552.385-1 .858-1 .474 0 .858.448.858 1v16c0 .552-.384 1-.858 1" transform="translate(.342 .04)"/></g></g></svg>