<svg height="63" width="61" xmlns="http://www.w3.org/2000/svg"><g fill="none" fill-rule="evenodd"><g fill="#13d9cc"><path d="m30.054 2.648a3.926 3.926 0 0 0 -3.922 3.922 3.926 3.926 0 0 0 3.922 3.921 3.926 3.926 0 0 0 3.922-3.921 3.926 3.926 0 0 0 -3.922-3.922zm0 10.458a6.545 6.545 0 0 1 -6.536-6.536 6.545 6.545 0 0 1 6.536-6.536 6.545 6.545 0 0 1 6.536 6.536 6.545 6.545 0 0 1 -6.536 6.536z"/><path d="m20.998 20.95h18.112c-.636-4.43-4.455-7.844-9.057-7.844-4.601 0-8.421 3.414-9.056 7.843zm19.514 2.614h-20.916a1.308 1.308 0 0 1 -1.307-1.307c0-6.487 5.279-11.766 11.765-11.766 6.487 0 11.765 5.28 11.765 11.766 0 .721-.585 1.307-1.307 1.307zm-28.759 18.301a3.926 3.926 0 0 0 -3.922 3.922 3.926 3.926 0 0 0 3.922 3.921 3.926 3.926 0 0 0 3.922-3.921 3.926 3.926 0 0 0 -3.922-3.922zm0 10.458a6.545 6.545 0 0 1 -6.536-6.536 6.545 6.545 0 0 1 6.536-6.536 6.545 6.545 0 0 1 6.536 6.536 6.545 6.545 0 0 1 -6.536 6.536z"/><path d="m2.696 60.166h18.114c-.635-4.429-4.455-7.843-9.056-7.843-4.602 0-8.421 3.414-9.057 7.843zm19.515 2.615h-20.916a1.308 1.308 0 0 1 -1.307-1.307c0-6.487 5.278-11.766 11.765-11.766 6.486 0 11.765 5.28 11.765 11.766 0 .721-.586 1.307-1.307 1.307zm26.144-20.916a3.926 3.926 0 0 0 -3.921 3.922 3.926 3.926 0 0 0 3.921 3.921 3.926 3.926 0 0 0 3.922-3.921 3.926 3.926 0 0 0 -3.922-3.922zm0 10.458a6.545 6.545 0 0 1 -6.536-6.536 6.545 6.545 0 0 1 6.536-6.536 6.545 6.545 0 0 1 6.537 6.536 6.545 6.545 0 0 1 -6.537 6.536z"/><path d="m39.299 60.166h18.113c-.635-4.429-4.455-7.843-9.057-7.843-4.601 0-8.42 3.414-9.056 7.843zm19.514 2.615h-20.915a1.308 1.308 0 0 1 -1.308-1.307c0-6.487 5.279-11.766 11.765-11.766 6.487 0 11.766 5.28 11.766 11.766 0 .721-.586 1.307-1.308 1.307z"/></g><path d="m11.753 36.636a1.308 1.308 0 0 1 -1.307-1.307v-20.916c0-.721.585-1.307 1.307-1.307h5.229a1.308 1.308 0 0 1 0 2.614h-3.922v19.61c0 .721-.585 1.307-1.307 1.307m36.602-.001a1.308 1.308 0 0 1 -1.307-1.307v-19.609h-3.921a1.308 1.308 0 0 1 0-2.614h5.228c.722 0 1.308.586 1.308 1.307v20.917c0 .721-.586 1.307-1.308 1.307" fill="#1776f5"/></g></svg>