<svg height="59" viewBox="0 0 59 59" width="59" xmlns="http://www.w3.org/2000/svg" xmlns:xlink="http://www.w3.org/1999/xlink"><linearGradient id="a" x1="50%" x2="50%" y1="0%" y2="100%"><stop offset="0" stop-color="#14e4c8"/><stop offset="1" stop-color="#0a6cf5"/></linearGradient><g fill="url(#a)" fill-rule="evenodd" transform="translate(.655791 .578141)"><path d="m24 2.70616c-11.9112 0-21.6 9.6888-21.6 21.6s9.6888 21.6 21.6 21.6 21.6-9.6888 21.6-21.6-9.6888-21.6-21.6-21.6m17.7911113 37.6919113 15.4584887 15.4584887c.468.4704.468 1.2288 0 1.6992-.2352.2328-.5424.3504-.8496.3504s-.6144-.1176-.8496-.3504l-15.4584887-15.4584887c-4.2599933 3.8567729-9.90645 6.2088887-16.0919113 6.2088887-13.2336 0-24-10.7664-24-24s10.7664-24 24-24 24 10.7664 24 24c0 6.1854613-2.3521158 11.831918-6.2088887 16.0919113z"/><path d="m11.4048 38.3548c-.5016 0-.9672-.3168-1.1376-.8184-.2112-.6288.1272-1.308.756-1.5192.3768-.1368.5592-.204.7488-.252l5.7624-1.44.1728-.7032c-3.948-.72-5.9712-1.9176-6.0648-1.9728-.3432-.2064-.5616-.5688-.5808-.9672s.1584-.78.48-1.0224c.0072-.0048 2.6496-2.256 2.6496-9.996 0-9.096 6.7368-12.1584 9.8088-12.1584 2.3232 0 3.2736.504 4.4016 1.5672h.2952c3.3912 0 5.112 3.5616 5.112 10.5912 0 7.74 2.6448 9.9912 2.6712 10.0128.3024.2472.4752.636.4464 1.0272s-.24.7512-.576.9504c-.0936.0528-2.136 1.2432-6.06 1.9632l.1752.708 5.7552 1.4376c.1968.0504.3792.1176.5616.1848.6288.2112 1.0656.9264.852 1.5552-.2112.6288-.7944.996-1.4208.7896l-.2664-.096c-.1032-.0384-.2064-.0792-.3144-.1056l-6.4464-1.6104c-.432-.108-.7656-.444-.8736-.876l-.6672-2.6736c-.084-.3288-.0216-.6792.1704-.96.1896-.2832.4896-.4704.828-.5184 2.3496-.3288 4.0776-.8592 5.1576-1.272-1.0536-1.6032-2.3928-4.7688-2.3928-10.5168 0-5.2056-.9888-8.1912-2.712-8.1912h-.7824c-.3192 0-.624-.1272-.8496-.3528-.9624-.9624-1.2864-1.2144-3.0648-1.2144-1.4688 0-7.4088 1.7376-7.4088 9.7584 0 5.7528-1.3392 8.9208-2.3952 10.5216 1.0704.4128 2.7936.9432 5.1576 1.272.336.048.6384.2352.828.516.192.2832.2544.6312.1728.9624l-.6672 2.6688c-.108.4296-.4416.768-.8736.876l-6.4536 1.6128c-.1008.024-.204.0648-.3048.1032l-.2688.096c-.1272.0408-.2544.0624-.3816.0624"/></g></svg>