<svg width="49" height="43" xmlns="http://www.w3.org/2000/svg"><defs><linearGradient x1="50%" y1="0%" x2="50%" y2="100%" id="a"><stop stop-color="#14E4C8" offset="0%"/><stop stop-color="#0A6CF5" offset="100%"/></linearGradient></defs><g transform="translate(-612 -1283)" fill="url(#a)" fill-rule="evenodd"><path d="M647.645 1315.703a1 1 0 0 1-.894-.552l-10.164-20.328-7.072 12.378a1.005 1.005 0 0 1-1.578.21l-5.122-5.124-8.328 12.958a1.001 1.001 0 0 1-1.684-1.082l9-14c.164-.254.434-.42.734-.454a.982.982 0 0 1 .816.288l5.074 5.074 7.348-12.864c.186-.32.516-.488.898-.504.368.012.702.224.866.554l11 22a1.001 1.001 0 0 1-.446 1.342c-.146.07-.298.104-.448.104m-24-26c-1.654 0-3 1.346-3 3 0 1.656 1.346 3 3 3s3-1.344 3-3c0-1.654-1.346-3-3-3zm0 8c-2.758 0-5-2.242-5-5 0-2.756 2.242-5 5-5s5 2.244 5 5c0 2.758-2.242 5-5 5z"/><path d="M645.645 1325.703a.99.99 0 0 1-.486-.126l-18-10a1 1 0 1 1 .972-1.748l17.142 9.526 13.034-22.342-11.216-7.478a.999.999 0 1 1 1.108-1.664l12 8c.44.294.576.88.31 1.336l-14 24a.995.995 0 0 1-.864.496"/><path d="M614.645 1313.703h32v-28h-32v28zm33 2h-34a1 1 0 0 1-1-1v-30a1 1 0 0 1 1-1h34a1 1 0 0 1 1 1v30a1 1 0 0 1-1 1z"/></g></svg>