<svg height="59" viewBox="0 0 56 59" width="56" xmlns="http://www.w3.org/2000/svg" xmlns:xlink="http://www.w3.org/1999/xlink"><linearGradient id="a"><stop offset="0" stop-color="#14e4c8"/><stop offset="1" stop-color="#0a6cf5"/></linearGradient><linearGradient id="b" x1="50%" x2="50%" xlink:href="#a" y1="-102.97669%" y2="100%"/><linearGradient id="c" x1="50%" x2="50%" xlink:href="#a" y1="-20.047043%" y2="181.9986%"/><g fill="none" fill-rule="evenodd" transform="translate(.203869 .578141)"><g fill="url(#b)"><path d="m2.4006 55.4157895h7.2v-19.896l-2.7504 2.736c-.4704.48-1.2288.48-1.6992 0l-2.7504-2.736zm8.4 2.4h-9.6c-.6624 0-1.2-.528-1.2-1.2v-24c0-.48.2928-.912.7416-1.104.444-.192.9648-.096 1.308.264l3.9504 3.936 3.9504-3.936c.3456-.36.864-.456 1.308-.264.4488.192.7416.624.7416 1.104v24c0 .672-.5376 1.2-1.2 1.2z"/><path d="m16.8006 55.4157895h7.2v-27.096l-3.6-3.6-3.6 3.6zm8.4 2.4h-9.6c-.6624 0-1.2-.528-1.2-1.2v-28.8c0-.312.1272-.624.3504-.84l4.8-4.8c.4704-.48 1.2288-.48 1.6992 0l4.8 4.8c.2232.216.3504.528.3504.84v28.8c0 .672-.5376 1.2-1.2 1.2z"/><path d="m31.2006 55.4157895h7.2v-31.896l-3.6-3.6-3.6 3.6zm8.4 2.4h-9.6c-.6624 0-1.2-.528-1.2-1.2v-33.6c0-.312.1272-.624.3504-.84l4.8-4.8c.4704-.48 1.2288-.48 1.6992 0l4.8 4.8c.2232.216.3504.528.3504.84v33.6c0 .672-.5376 1.2-1.2 1.2z"/><path d="m45.6006 55.4157895h7.2v-39.096l-1.6968-1.704h-1.4064l-4.0968 4.104zm8.4 2.4h-9.6c-.6624 0-1.2-.528-1.2-1.2v-38.4c0-.312.1272-.624.3504-.84l4.8-4.8c.2256-.24.5304-.36.8496-.36h2.4c.3192 0 .624.12.8496.36l2.4 2.4c.2232.216.3504.528.3504.84v40.8c0 .672-.5376 1.2-1.2 1.2z"/></g><path d="m6.0006 31.4157895c-.3072 0-.6144-.12-.8496-.36l-4.8-4.8c-.468-.456-.468-1.224 0-1.68.4704-.48 1.2288-.48 1.6992 0l3.9504 3.936 13.5504-13.536c.4704-.48 1.2288-.48 1.6992 0l3.9504 3.936 8.7504-8.736c.4704-.48000003 1.2288-.48000003 1.6992 0l3.9504 3.936 9.9504-9.93600003c.4704-.48 1.2288-.48 1.6992 0 .468.456.468 1.224 0 1.68l-10.8 10.80000003c-.4704.48-1.2288.48-1.6992 0l-3.9504-3.936-8.7504 8.736c-.4704.48-1.2288.48-1.6992 0l-3.9504-3.936-13.5504 13.536c-.2352.24-.5424.36-.8496.36" fill="url(#c)"/><path d="m49.6974 2.61578947 3.1032 3.096v-3.096zm4.3032 7.2c-.312 0-.6192-.12-.8496-.36l-7.2-7.2c-.3408-.336-.444-.84-.2592-1.296s.624-.744 1.1088-.744h7.2c.6624 0 1.2.528 1.2 1.2v7.2c0 .48-.2928.912-.7416 1.104-.1464.072-.3048.096-.4584.096z" fill="url(#c)"/></g></svg>