<svg height="62" width="65" xmlns="http://www.w3.org/2000/svg"><g fill="none" fill-rule="evenodd"><path d="m37.74 39.572a1.39 1.39 0 0 1 -.98-.405l-6.927-6.926a1.386 1.386 0 0 1 1.962-1.959l6.926 6.927a1.386 1.386 0 0 1 -.98 2.363" fill="#0a70f4"/><path d="m16.961 45.113c-.667 0-1.255-.48-1.366-1.155l-1.385-8.312a1.385 1.385 0 1 1 2.732-.457l1.385 8.311a1.386 1.386 0 0 1 -1.366 1.613m26.321-30.476h-8.312a1.386 1.386 0 0 1 0-2.77h8.312a1.386 1.386 0 0 1 0 2.77" fill="#13d9cc"/><path d="m52.979 6.325c-4.583 0-8.312 3.73-8.312 8.312 0 4.585 3.73 8.311 8.312 8.311s8.311-3.726 8.311-8.311c0-4.583-3.729-8.312-8.311-8.312zm0 19.394c-6.112 0-11.083-4.97-11.083-11.082 0-6.11 4.97-11.083 11.083-11.083 6.112 0 11.082 4.974 11.082 11.083 0 6.112-4.97 11.082-11.082 11.082z" fill="#0a70f4"/><path d="m18.347 3.554c-8.403 0-15.238 6.838-15.238 15.239 0 8.403 6.835 15.238 15.238 15.238s15.238-6.835 15.238-15.238c0-8.4-6.835-15.239-15.238-15.239zm0 33.247c-9.93 0-18.009-8.079-18.009-18.008 0-9.927 8.079-18.01 18.009-18.01s18.008 8.083 18.008 18.01c0 9.93-8.079 18.008-18.008 18.008z" fill="#13d9cc"/><path d="m16.961 45.113a5.547 5.547 0 0 0 -5.54 5.541 5.545 5.545 0 0 0 5.54 5.541 5.545 5.545 0 0 0 5.542-5.541 5.547 5.547 0 0 0 -5.542-5.541zm0 13.853c-4.582 0-8.311-3.727-8.311-8.312 0-4.582 3.729-8.312 8.311-8.312 4.583 0 8.312 3.73 8.312 8.312 0 4.585-3.73 8.312-8.312 8.312z" fill="#0a70f4"/><path d="m48.823 34.03c-6.874 0-12.468 5.594-12.468 12.468 0 6.877 5.594 12.468 12.468 12.468s12.467-5.591 12.467-12.468c0-6.874-5.593-12.467-12.467-12.467zm0 27.706c-8.403 0-15.238-6.835-15.238-15.238 0-8.4 6.835-15.238 15.238-15.238s15.238 6.838 15.238 15.238c0 8.403-6.835 15.238-15.238 15.238z" fill="#13d9cc"/></g></svg>