<svg height="59" viewBox="0 0 61 59" width="61" xmlns="http://www.w3.org/2000/svg" xmlns:xlink="http://www.w3.org/1999/xlink"><linearGradient id="a" x1="50%" x2="50%" y1="0%" y2="100%"><stop offset="0" stop-color="#14e4c8"/><stop offset="1" stop-color="#0a6cf5"/></linearGradient><path d="m14.4166513 35.5824943c-.8193071 4.1760859-2.255493 9.2305049-3.2814964 12.6305573l18.0110951 6.0036984c4.5 1.7025 4.865 1.84 15.38-2.4725l12.3925-5.6325c-1.38-1.6725-3.605-2.4375-5.7875-1.89l-9.5775 2.395c-.0076627.0018437-.0153281.0036126-.0229953.0053074l-3.3412547.8346926c-.6925.1725-1.41.26-2.1275.26-.5725 0-1.1475-.055-1.71-.1675l-10.845-2.1725c-.68-.1325-1.12-.7925-.9825-1.4675.1375-.6825.825-1.1125 1.47-.9825l10.8475 2.17c.9025.1775 1.85.155 2.7375-.0675l2.4025-.5975c-.1525-2.285-1.265-3.375-4.035-4.065zm.4219656-2.4692739 21.6833831 4.8185296c3.6977329.9233181 5.5551017 2.7578651 5.9128866 5.8852437l8.0888634-2.0227437c3.765-.935 7.6075.83 9.345 4.3.15.305.1725.655.06.975-.115.32-.3525.5825-.66.72l-13.75 6.25c-6.5275 2.6775-9.495 3.785-12.03 3.785-1.63 0-3.08-.46-5.18-1.2525l-17.9100435-5.9676207c-.2571277.8175687-.42562916 1.3345762-.4587065 1.4356207-.17.515-.65.8625-1.19.8625h-7.5c-.69 0-1.25-.56-1.25-1.25v-22.5c0-.345.1425-.675.3925-.91.2525-.235.595-.3625.93-.3375 2.5775.1525 11.1425.81 13.2875 2.84.275.2625.42.6375.385 1.0175-.0369813.4235747-.089834.8756861-.1563831 1.3509704zm41.4113831 4.7867796c-.69 0-1.25-.5575-1.25-1.2475 0-3.0075-2.0375-5.62-4.955-6.35l-6.27-1.5675c-.45-.1125-.8-.4625-.91-.91l-.7175-2.86c-.1125-.45.035-.9225.38-1.2325 1.5225-1.365 2.5275-3.3975 2.69-5.44.05-.6525.5925-1.1525 1.245-1.1525.2125 0 .3275-.1025.345-.2375l.38-3.0425c-.34-.0025-.795-.295-1.03-.5425-.2325-.2475-.4875-.73-.4725-1.07l.1875-3.8075c.0125-.31.1425-.6025.3625-.8225l.7625-.7625c.355-.38.6925-.925-.1625-2.2375-.7575-1.1525-2.095-1.715-4.08-1.715-1.4825 0-3.2125.1525-4.7975 1.2875-.21.15-.46.23-.7175.2325-5.61.0575-5.61 2.1925-5.61 4.0775 0 .7175.2525 2.8775.35 3.6475.045.3575-.065.7125-.3025.985-.2375.2675-.58.4225-.9375.4225l-.36.0925.3125 3.255c.0175.135.1325.2375.27.2375.6525 0 1.4425.5 1.4925 1.1525.16 1.98 1.12 3.9725 2.57 5.3325.3325.31.4675.7775.3575 1.215l-.7475 2.985c-.11.4475-.46.7975-.91.91l-6.2725 1.5675c-.8975.225-1.7225.63-2.45 1.2-.5375.42-1.3275.335-1.755-.2125-.425-.54-.3325-1.3275.2125-1.755 1.0025-.7875 2.1425-1.3475 3.385-1.66l5.5475-1.3825.3925-1.575c-1.375-1.5-2.335-3.45-2.695-5.455-1.0425-.3575-1.7475-1.205-1.8775-2.2475l-.38-3.0425c-.0975-.7925.1475-1.5875.6725-2.18.245-.2775.5375-.5.86-.655-.105-.94-.235-2.21-.235-2.8375 0-2.97.8875-6.38 7.7025-6.57 2.36-1.5275 4.835-1.5275 5.9225-1.5275 3.555 0 5.3175 1.5475 6.17 2.8475 1.7475 2.6675.6675 4.4925-.1325 5.345l-.4475.4475-.115 2.3475c.29.155.555.3625.7775.6175.5175.5925.7575 1.38.66 2.1625l-.38 3.045c-.1275 1.015-.7975 1.8475-1.7 2.2175-.365 2.0825-1.3825 4.0975-2.84 5.625l.36 1.435 5.545 1.3825c4.0325 1.0125 6.8475 4.62 6.8475 8.7725 0 .69-.56 1.2525-1.25 1.2525z" fill="url(#a)" fill-rule="evenodd" transform="translate(.791117 .411991)"/></svg>