<svg width="63" height="64" xmlns="http://www.w3.org/2000/svg"><g fill="none" fill-rule="evenodd"><path d="M18.568 42.52a2.619 2.619 0 0 0-2.614 2.614 2.619 2.619 0 0 0 2.614 2.614 2.619 2.619 0 0 0 2.615-2.614 2.619 2.619 0 0 0-2.615-2.615zm0 7.842a5.24 5.24 0 0 1-5.229-5.228 5.24 5.24 0 0 1 5.23-5.23 5.24 5.24 0 0 1 5.228 5.23 5.24 5.24 0 0 1-5.229 5.228zM15.556 60.82h6.021l.576-4.104a1.33 1.33 0 0 1 .779-1.02 11.656 11.656 0 0 0 2.575-1.49c.371-.288.86-.366 1.292-.183l3.85 1.542 3.007-5.203-3.27-2.536a1.338 1.338 0 0 1-.49-1.228c.066-.471.11-.968.11-1.464 0-.497-.047-.994-.112-1.517-.057-.444.128-.915.492-1.176l3.27-2.563-3.006-5.202-3.851 1.542a1.277 1.277 0 0 1-1.29-.183 11.11 11.11 0 0 0-2.564-1.49 1.331 1.331 0 0 1-.792-1.02l-.573-4.078h-6.02l-.575 4.104a1.33 1.33 0 0 1-.782 1.02c-.944.392-1.81.889-2.575 1.49a1.28 1.28 0 0 1-1.29.183l-3.85-1.542-3.007 5.203 3.27 2.562c.367.261.552.732.49 1.202-.066.471-.11.968-.11 1.465 0 .496.047.993.112 1.516.058.444-.128.915-.491 1.176L3.48 50.39l3.006 5.202 3.85-1.542a1.276 1.276 0 0 1 1.29.183 11.837 11.837 0 0 0 2.567 1.49c.424.183.724.575.79 1.02l.572 4.078zm6.411 2.615h-6.798a2.2 2.2 0 0 1-2.133-1.778l-.541-3.817a13.193 13.193 0 0 1-1.86-1.098l-3.55 1.438a2.212 2.212 0 0 1-2.65-.915l-3.41-5.883a2.15 2.15 0 0 1 .479-2.745l3.064-2.405a11.872 11.872 0 0 1-.053-1.098c0-.366.019-.706.05-1.072l-3.022-2.353C.69 40.977.494 39.8 1.033 38.91l3.39-5.856a2.184 2.184 0 0 1 2.636-.942l3.58 1.438a14.67 14.67 0 0 1 1.856-1.071l.53-3.791c.197-1.099 1.096-1.857 2.144-1.857h6.798A2.2 2.2 0 0 1 24.1 28.61l.542 3.843c.643.288 1.268.654 1.856 1.072l3.553-1.438a2.208 2.208 0 0 1 2.648.915l3.412 5.883a2.153 2.153 0 0 1-.478 2.745l-3.064 2.405c.034.366.052.733.052 1.099s-.018.705-.05 1.071l3.023 2.354c.852.732 1.048 1.908.51 2.797l-3.392 5.856a2.18 2.18 0 0 1-2.635.942l-3.58-1.438c-.577.392-1.2.758-1.855 1.072l-.531 3.79c-.196 1.099-1.096 1.857-2.144 1.857z" fill="#13D9CC"/><path d="M44.713 16.374a2.619 2.619 0 0 0-2.615 2.615 2.619 2.619 0 0 0 2.615 2.614 2.619 2.619 0 0 0 2.614-2.614 2.619 2.619 0 0 0-2.614-2.615zm0 7.844a5.24 5.24 0 0 1-5.23-5.23 5.24 5.24 0 0 1 5.23-5.228 5.24 5.24 0 0 1 5.229 5.229 5.24 5.24 0 0 1-5.23 5.229zM41.7 34.676h6.021l.575-4.105c.066-.444.361-.837.78-1.02a11.702 11.702 0 0 0 2.575-1.49c.374-.288.86-.366 1.291-.183l3.851 1.543 3.007-5.203-3.27-2.536a1.338 1.338 0 0 1-.49-1.229c.066-.47.11-.967.11-1.464s-.047-.994-.112-1.517c-.058-.444.128-.915.491-1.176l3.271-2.562-3.007-5.203-3.85 1.543a1.278 1.278 0 0 1-1.29-.183A11.11 11.11 0 0 0 49.09 8.4a1.331 1.331 0 0 1-.792-1.02l-.572-4.079h-6.021l-.576 4.105a1.33 1.33 0 0 1-.781 1.02c-.944.392-1.81.888-2.576 1.49a1.28 1.28 0 0 1-1.288.183L32.63 8.557l-3.006 5.203 3.27 2.562c.367.262.552.732.49 1.203-.066.47-.11.967-.11 1.464s.047.993.112 1.516c.058.445-.128.915-.492 1.177l-3.27 2.562 3.006 5.203 3.852-1.543a1.276 1.276 0 0 1 1.288.183 11.837 11.837 0 0 0 2.568 1.49c.423.183.724.576.79 1.02l.572 4.079zm6.41 2.614h-6.797a2.2 2.2 0 0 1-2.133-1.778l-.542-3.817a13.193 13.193 0 0 1-1.858-1.098l-3.55 1.438a2.211 2.211 0 0 1-2.652-.915l-3.41-5.883a2.15 2.15 0 0 1 .48-2.745l3.063-2.405a11.872 11.872 0 0 1-.052-1.098c0-.366.018-.706.05-1.072l-3.023-2.353c-.852-.732-1.048-1.909-.51-2.798L30.57 6.91a2.185 2.185 0 0 1 2.635-.941l3.58 1.438a14.67 14.67 0 0 1 1.855-1.072l.531-3.791c.196-1.098 1.096-1.856 2.144-1.856h6.798a2.2 2.2 0 0 1 2.133 1.777l.541 3.844a10.87 10.87 0 0 1 1.857 1.072l3.553-1.438a2.209 2.209 0 0 1 2.648.915l3.412 5.882c.53.915.335 2.066-.478 2.745l-3.065 2.406c.034.366.053.732.053 1.098 0 .366-.019.706-.05 1.072l3.022 2.353c.853.732 1.049 1.908.51 2.797l-3.39 5.857c-.553.94-1.645 1.307-2.636.94l-3.58-1.437c-.577.392-1.2.758-1.856 1.072l-.53 3.79c-.197 1.099-1.096 1.857-2.144 1.857z" fill="#1776F5"/></g></svg>