<svg width="36" height="53" xmlns="http://www.w3.org/2000/svg"><defs><linearGradient x1="50%" y1="0%" x2="50%" y2="100%" id="a"><stop stop-color="#14E4C8" offset="0%"/><stop stop-color="#0A6CF5" offset="100%"/></linearGradient></defs><g fill="none" fill-rule="evenodd"><path d="M23.572 6.189h-20c-.552 0-1-.44-1-1s.448-1 1-1h20c.552 0 1 .44 1 1s-.448 1-1 1" fill="#14E2C9"/><path d="M19.572 10.189a.988.988 0 0 1-.708-.3.984.984 0 0 1 0-1.4l3.294-3.3-3.294-3.3a.984.984 0 0 1 0-1.4.985.985 0 0 1 1.416 0l4 4c.39.38.39 1.02 0 1.4l-4 4c-.196.2-.452.3-.708.3" fill="#14E2C9"/><path d="M3.294 18.15c-.55 0-1 .46-1 1v18.86c0 2.4.936 4.66 2.636 6.36l3.146 3.14a8.922 8.922 0 0 0 6.354 2.64c2.242 0 4.39-.82 6.048-2.34l8.23-7.48c.676-.68.676-1.84-.034-2.54a1.8 1.8 0 0 0-2.586-.02l-.086.08a.985.985 0 0 1-1.416 0 .99.99 0 0 1-.006-1.4h.006l2.088-2.1c.71-.7.71-1.86 0-2.56a1.855 1.855 0 0 0-2.586-.02l-2.086 2.08a.985.985 0 0 1-1.416 0 .953.953 0 0 1-.292-.7c0-.26.098-.52.292-.7l12-12c.71-.72.71-1.88 0-2.58a1.834 1.834 0 0 0-2.584-.02l-12 12a.985.985 0 0 1-1.416 0 .953.953 0 0 1-.292-.7c0-.26.098-.52.292-.7l10.006-10.02c.71-.7.71-1.86 0-2.56a1.836 1.836 0 0 0-2.586-.02l-15.004 15c-.268.28-.66.36-1.018.26-.358-.12-.62-.44-.678-.8L5.73 20.27a2.466 2.466 0 0 0-2.436-2.12zm11.136 34c-2.934 0-5.692-1.14-7.768-3.22l-3.146-3.14a10.932 10.932 0 0 1-3.222-7.78V19.15a3 3 0 0 1 3-3 4.472 4.472 0 0 1 4.414 3.84l1.27 8.06 13.614-13.62a3.844 3.844 0 0 1 5.404 0c.48.48.808 1.06.98 1.68 1.498-1.14 3.648-1.04 5.014.34 1.502 1.5 1.502 3.92.012 5.4l-7.54 7.54c.592.18 1.148.5 1.614.96a3.839 3.839 0 0 1 .346 5.04c.608.16 1.178.5 1.654.96 1.502 1.5 1.502 3.94.012 5.42l-8.262 7.52a10.994 10.994 0 0 1-7.396 2.86z" fill="url(#a)" transform="translate(.278 .04)"/></g></svg>