<svg height="61" viewBox="0 0 61 61" width="61" xmlns="http://www.w3.org/2000/svg" xmlns:xlink="http://www.w3.org/1999/xlink"><linearGradient id="a" x1="50%" x2="50%" y1="0%" y2="100%"><stop offset="0" stop-color="#14e4c8"/><stop offset="1" stop-color="#0a6cf5"/></linearGradient><path d="m31.1907602 8.94744476v-5.20323423c.0592983-.63040936-.4036257-1.18959065-1.0340351-1.24888889-.0760233-.00713451-.1526315-.00666667-.228538.00140351h-4.9753216c-8.9528655.01029239-16.20807018 7.26549707-16.21836258 16.21836255v2.4177778c-.00023391.2106433-.05345029.4178947-.15473684.6025731l-6.05695906 10.9785965c.06385965.6016374.60327485 1.0375438 1.20479532.9738012.00549708-.0005848.01111111-.0011696.01660819-.0018714 1.69976608.0740351 3.31859649.7471345 4.56982456 1.9.26748538.2368421.42058479.577076.42046783.934386v4.6508772c-.0825731 1.2954386.90070176 2.4125146 2.19614038 2.4950877.0995321.0063158.1994152.0063158.2989473 0h7.4853802c.6274853.0615205 1.1859649-.397076 1.2476023-1.0245614.0072515-.0741521.0072515-.1488889 0-.2230409v-6.450761c-1.4536253-.5138075-2.4950877-1.900143-2.4950877-3.5297069 0-2.0670175 1.6756725-3.74269 3.74269-3.74269 2.0670176 0 3.7426901 1.6756725 3.7426901 3.74269 0 1.6296076-1.0415183 3.0159738-2.4952047 3.5297482v6.4507197c.0588304 2.008304-1.5216374 3.6839766-3.5299415 3.74269-.0708772.0021053-.1418713.0021053-.2127485 0h-7.4853802c-2.67707598.0790643-4.91122803-2.0271345-4.99029235-4.7040936-.00280702-.0954386-.00280702-.1908772 0-.2861988v-4.0557895c-.71730995-.5580117-1.5877193-.8839766-2.49508772-.9343859-2.0083041.0588304-3.68397661-1.5216375-3.74269006-3.5299415-.00210527-.0708772-.00210527-.1418714 0-.2127486.00023392-.2106433.05345029-.4178947.15473684-.6025731l6.08304094-11.0233918v-2.097193c.0116959-10.33029238 8.38315785-18.70175437 18.71345025-18.71345027h4.9902924c2.0083041-.05883041 3.6839766 1.52163742 3.7428071 3.52994152.0021052.07087719.0021052.14187134 0 .21274854v5.20315861c1.4536252.51380746 2.4950877 1.900143 2.4950877 3.5297069 0 2.0670175-1.6756725 3.74269-3.7426901 3.74269-2.0670175 0-3.74269-1.6756725-3.74269-3.74269 0-1.6296076 1.0415183-3.0159738 2.4952046-3.52974824zm7.27228 30.97618094c-.5138074 1.4536253-1.900143 2.4950878-3.5297069 2.4950878-2.0670175 0-3.74269-1.6756726-3.74269-3.7426901 0-2.0670176 1.6756725-3.7426901 3.74269-3.7426901 1.6296077 0 3.0159738 1.0415184 3.5297483 2.4952047h12.6886143c2.0083041-.0588304 3.6839766 1.5216374 3.7426901 3.5300585.0021052.0708772.0021052.1418713 0 .2127485v2.4950877c.0001169.0837427-.0081872.1673685-.0249123.2494737-.4541521 2.274269-2.3129825 6.388772-6.2128655 7.1260819v7.5952047c0 .6890058-.5585965 1.2476023-1.2476024 1.2476023h-26.1988304c-.6890058 0-1.2476023-.5585965-1.2476023-1.2476023v-4.9902924h2.4950877v3.74269h23.7036257v-7.4853801c0-.6890058.5585965-1.2476023 1.2476024-1.2476023 3.6079532 0 4.8106433-4.3826901 4.9902924-5.1274854v-2.3578947c.0616374-.6274854-.397076-1.1859649-1.0245614-1.2476024-.0741521-.0072514-.1488889-.0072514-.223041 0zm20.1740358-24.951228c.6890059 0 1.2474854.5584795 1.2476024 1.2474853v4.9900585c0 .6890059-.5585965 1.2476024-1.2476024 1.2476024h-3.1463158c-.1320467.3706432-.2831579.734152-.4528655 1.0891228l2.2269006 2.225614c.4870176.4872515.4870176 1.2769591 0 1.7640936l-3.5293567 3.5293567c-.4872515.4870175-1.2769591.4870175-1.7640936 0l-2.225614-2.2244445c-.3550877.1688889-.7185965.3196492-1.0891228.451579v3.1451462c0 .6890058-.5585965 1.2476023-1.2476024 1.2476023h-4.9902923c-.6890059 0-1.2476024-.5585965-1.2476024-1.2476023v-3.1463158c-.3705263-.1319298-.7340351-.2825731-1.0891228-.4515789l-2.225614 2.225614c-.4872515.4870175-1.2769591.4870175-1.7640936 0l-3.5293567-3.5293567c-.4870176-.4872515-.4870176-1.2769591 0-1.7640936l2.225614-2.225614c-.1692398-.3549708-.32-.7184796-.4515789-1.0891228h-3.1463158v-2.4950878h4.0694737c.5683041.0007018 1.0643274.3853802 1.2064327.9356726.2044445.788304.5181287 1.5442105.9319298 2.245614.2894737.4905263.2098246 1.1148538-.1933333 1.517076l-1.9961404 1.9961404 1.7640936 1.7640935 1.9959064-1.9959064c.4025731-.402807 1.0267837-.4818713 1.5170761-.1921637.7015204.4129824 1.4574269.7258479 2.245614.9294736.5507602.1421053.9355556.6388304.9356725 1.2076024v2.8207017h2.4950877v-2.8219883c.000117-.5687719.3849123-1.0653801.9356726-1.2076023.7881871-.2036257 1.5440935-.5164912 2.245614-.9294737.4902924-.2897076 1.1145029-.2106433 1.517076.1921637l1.9961404 1.9961404 1.7640935-1.7640936-1.9961403-1.9961403c-.4031579-.4023392-.4826901-1.0265497-.1933334-1.517076.4138012-.7014036.7274854-1.45731.9319299-2.2456141.1421052-.5502924.6381286-.9349707 1.2064327-.9356725h2.8195322v-2.4939181h-2.8219883c-.5683041-.0007018-1.0643275-.3853801-1.2064328-.9356725-.2044444-.7883041-.5181286-1.5442106-.9319298-2.2456141-.2893567-.4905263-.2098246-1.1148538.1933333-1.517076l1.9961404-1.9961403-1.7652632-1.76152051-1.9961403 1.99614031c-.4025731.4028071-1.0267836.4818714-1.517076.1921638-.7015205-.4129825-1.4574269-.725848-2.2456141-.9294737-.5501754-.1432749-.9339181-.64035088-.9332164-1.20888889v-2.82198831h-2.4950877v2.82187135c-.0001169.56877193-.3849123 1.06538015-.9356725 1.20760235-.7881871.2036257-1.5440936.5164912-2.245614.9294737l-1.2674854-2.14830412c.620117-.36666667 1.274386-.67204678 1.9536842-.91192983v-3.14631578c0-.68900585.5585965-1.24760234 1.2476024-1.24760234h4.9901754c.6890058 0 1.2476023.55859649 1.2476023 1.24760234v3.14643274c.3705263.13192983.7340351.2825731 1.0891228.45157895l2.2256141-2.22561403c.4872514-.48701755 1.276959-.48701755 1.7640935 0l3.5293568 3.52935672c.4870175.48725145.4870175 1.27695905 0 1.76409355l-2.2256141 2.2256141c.1697076.3549707.3208187.7184795.4528655 1.0891228zm-13.7232748-1.2476024c2.7561403 0 4.9902924 2.234269 4.9902924 4.9902924s-2.234269 4.9902924-4.9902924 4.9902924c-2.7561404 0-4.9902924-2.234269-4.9902924-4.9902924s2.234269-4.9902924 4.9902924-4.9902924zm0 7.4853801c1.3781286 0 2.4952046-1.117076 2.4950877-2.4950877 0-1.3780117-1.117076-2.4950877-2.4950877-2.4950877s-2.4950877 1.117076-2.4950877 2.4950877 1.117076 2.4950877 2.4950877 2.4950877zm-26.1988304-1.2476023h2.4950877v1.2476023c.028538 1.3494737-1.0422222 2.4665497-2.3916959 2.4950878-.034503.0007017-.0688889.0007017-.1033918 0h-3.7426901c-1.3494737.028538-2.4665497-1.0422223-2.4950877-2.3916959-.0007018-.034503-.0007018-.0688889 0-.1033919v-1.2476023h2.4950877v1.2476023h3.7426901zm19.7480694 19.9610526c.1379307-.3902232.2129832-.8101487.2129832-1.2476023 0-.4374099-.0750375-.8572952-.2129418-1.2474854h-1.0346605v2.4950877zm-3.5297069 0c.6890059 0 1.2476024-.5585965 1.2476024-1.2476023 0-.6890059-.5585965-1.2476023-1.2476024-1.2476023-.6890058 0-1.2476023.5585964-1.2476023 1.2476023 0 .6890058.5585965 1.2476023 1.2476023 1.2476023zm-14.9707602-3.9556732c.3902232.1379307.8101487.2129832 1.2476023.2129832.43741 0 .8572953-.0750375 1.2474854-.2129419v-1.0346605h-2.4950877zm1.2476023-2.2821045c.6890059 0 1.2474854-.5585965 1.2476024-1.2476024 0-.6890058-.5585965-1.2476023-1.2476024-1.2476023-.6890058 0-1.2476023.5585965-1.2476023 1.2476023 0 .6890059.5585965 1.2476024 1.2476023 1.2476024zm9.9805848-24.73840324v1.03454354h2.4950878v-1.0345022c-.3902233-.13793073-.8101488-.21298318-1.2476024-.21298318-.4374099 0-.8572952.07503746-1.2474854.21294184zm1.2474854 4.77735054c.6890059 0 1.2476024-.5585965 1.2476024-1.2476023 0-.6890059-.5585965-1.2476024-1.2476024-1.2476024-.6890058 0-1.2476023.5585965-1.2476023 1.2476024 0 .6890058.5585965 1.2476023 1.2476023 1.2476023zm-6.2378947 6.2377778h2.4950877v2.4950877h-2.4950877zm0 4.9902924h2.4950877v2.4950877h-2.4950877zm-6.2377778 23.7037427h2.4950877v2.4950877h-2.4950877z" fill="url(#a)" transform="translate(.769005 .651958)"/></svg>