<svg height="81" viewBox="0 0 79 81" width="79" xmlns="http://www.w3.org/2000/svg" xmlns:xlink="http://www.w3.org/1999/xlink"><linearGradient id="a" x1="50%" x2="50%" y1="0%" y2="100%"><stop offset="0" stop-color="#14e4c8"/><stop offset="1" stop-color="#0a6cf5"/></linearGradient><g fill="url(#a)" transform="translate(.462364 .659614)"><path d="m39.2819632 22.2668303c-9.3968098 0-17.0143149 7.6175051-17.0143149 17.0143149s7.6175051 17.0143149 17.0143149 17.0143149 17.0143149-7.6175051 17.0143149-17.0143149c-.0109611-9.392229-7.6220859-17.0035174-17.0143149-17.0143149zm0 31.4110429c-7.9510839 0-14.396728-6.4456442-14.396728-14.396728 0-7.9510839 6.4456441-14.396728 14.396728-14.396728 7.9510838 0 14.396728 6.4456441 14.396728 14.396728-.0094887 7.9471575-6.4495705 14.3874029-14.396728 14.396728z"/><path d="m70.9336605 40.5899387c.7227812 2.0444989 2.9662168 3.11591 5.0105522 2.3929652 2.044499-.7227812 3.11591-2.9662168 2.3929652-5.0105522-.7227812-2.0444989-2.9662168-3.11591-5.0105521-2.3929652-1.1182004.3952556-1.9977096 1.2749284-2.3929653 2.3929652h-10.7779141c-.2859713-4.6364008-2.1133742-9.0440899-5.1919836-12.5225357l8.4181595-8.4181596h7.5491206c.7162373 2.0399182 2.9506749 3.1128017 4.9904295 2.3965645.5546012-.1948467 1.0583231-.5119019 1.4737014-.9280982 1.5327608-1.5332515 1.5327608-4.0186503 0-5.5519018-1.5540286-1.4830266-3.999182-1.4830266-5.5532106 0-.411452.4147239-.7244172.9166462-.9161554 1.4684662h-8.085726c-.3471575 0-.6799182.1380777-.925317.3834765l-8.801636 8.801636c-3.4781186-3.079591-7.8858077-4.9079755-12.5225358-5.1946012v-10.77791415c2.044499-.72278118 3.1159101-2.96621677 2.3929653-5.01055214-.7229448-2.04433538-2.9660532-3.11591002-5.0105522-2.39312884-2.0444989.72278119-3.11591 2.96621677-2.3929652 5.01055215.3952556 1.11820041 1.2749284 1.99770961 2.3929652 2.39296523v10.77791415c-4.6364008.2859713-9.0440899 2.1133742-12.5225358 5.1919836l-8.8016359-8.801636c-.2453988-.2453988-.5781596-.3834765-.925317-.3834765h-8.09096116c-.19173824-.5514928-.50486708-1.0527607-.91615542-1.4671574-1.55402863-1.4830266-3.99918201-1.4830266-5.55321064 0-1.53341513 1.5332515-1.53374233 4.0193047-.00049079 5.5527198.0001636.0001636.00032719.0003272.00049079.0004908 1.51182004 1.5353783 3.98200409 1.5543558 5.51738242.0425358.42993865-.4232311.75566462-.9405317.95198364-1.5110021h7.54912066l8.4181595 8.4181596c-3.0786094 3.4784458-4.9060123 7.8861349-5.1919836 12.5225357h-10.77791415c-.72278119-2.0444989-2.96621677-3.11591-5.01055215-2.3929652-2.04449897.7227812-3.11591002 2.9662168-2.39296523 5.0105522.72278118 2.0444989 2.96621677 3.11591 5.01055215 2.3929652 1.1182004-.3952556 1.99770961-1.2749284 2.39296523-2.3929652h10.77791415c.2859713 4.6364008 2.1133742 9.0440899 5.1919836 12.5225357l-8.4181595 8.4181595h-7.54912066c-.19173824-.5514928-.50486708-1.0527607-.91615542-1.4671574-1.55402863-1.4830266-3.99918201-1.4830266-5.55321064 0-1.53390593 1.5330879-1.53439672 4.0193047-.00130879 5.5532106 1.53308794 1.5339059 4.0193047 1.5343967 5.55321063.0013088.41210634-.4150511.72556238-.9173006.91746422-1.469775h8.09096116c.3471574 0 .6799182-.1380777.925317-.3834765l8.8016359-8.801636c3.4784459 3.0786094 7.886135 4.9060123 12.5225358 5.1919836v11.8458896c.0078528.076728.0232311.152638.0458078.2264213-2.0531697.6975869-3.152229 2.9274437-2.4546421 4.9806135.6975869 2.0531697 2.9274437 3.152229 4.9806135 2.4546421 2.0531697-.6975869 3.152229-2.9274438 2.4546421-4.9806135-.3924744-1.1551738-1.2994683-2.0623313-2.4546421-2.4546421.0225767-.0737833.0377914-.1496933.0458077-.2264213v-11.8458896c4.6364009-.2859713 9.04409-2.1133742 12.5225358-5.1919836l8.801636 8.801636c.2453988.2453988.5781595.3834765.925317.3834765h8.0909611c.1917383.5514928.5048671 1.0527607.9161555 1.4671574 1.5334151 1.5334152 4.0197955 1.5334152 5.5532106 0 1.5334151-1.5334151 1.5334151-4.0197955 0-5.5532106-1.5540286-1.4830266-3.999182-1.4830266-5.5532106 0-.411452.4147239-.7244172.9166462-.9161555 1.4684662h-7.5491206l-8.4181595-8.4181595c3.0786094-3.4784458 4.9060123-7.8861349 5.1919836-12.5225357h10.7779141zm2.7602454-25.7923927c.5020859-.5199182 1.3307158-.5343149 1.850634-.0320654.5199182.5020859.5343149 1.3307157.0320654 1.8506339-.0104703.0109612-.0212679.0215951-.0320654.0320655-.5176278.4948875-1.3330062.4948875-1.850634 0-.5109202-.5110839-.5109202-1.3395501 0-1.850634zm-68.82404905 1.850634c-.51762781.4948875-1.33300613.4948875-1.85063395 0-.51124744-.5110839-.51124744-1.3397137-.00032719-1.8509612.51108384-.5112474 1.3397137-.5112474 1.85096114-.0003272.51124744.5110839.51124744 1.3397137.0003272 1.8509612-.0001636.0001636-.0003272.0001636-.0003272.0003272zm0 47.1165644c-.51762781.4948875-1.33300613.4948875-1.85063395 0-.51124744-.5110839-.51124744-1.3397137-.00032719-1.8509612.51092024-.5112474 1.3397137-.5112474 1.85096114-.0003272.51124744.5110839.51124744 1.3397137.0003272 1.8509612-.0001636.0001636-.0003272.0001636-.0003272.0003272zm68.82404905-1.850634c.5022495-.5199182 1.3307158-.5343149 1.850634-.0320654s.5343149 1.3307157.0320654 1.8506339c-.0104703.0107976-.0211043.0215951-.0320654.0320655-.5176278.4948875-1.3330062.4948875-1.850634 0-.5109202-.5110839-.5109202-1.3395501 0-1.850634zm.9254806-23.9417587c.7227812 0 1.3087935.5860123 1.3087935 1.3087935s-.5860123 1.3087935-1.3087935 1.3087935-1.3087935-.5860123-1.3087935-1.3087935.5858487-1.3087935 1.3087935-1.3087935zm-35.3374233-35.33742327c.7227812 0 1.3087934.58601227 1.3087934 1.30879345 0 .72278119-.5860122 1.30879346-1.3087934 1.30879346s-1.3087935-.58601227-1.3087935-1.30879346c0-.72278118.5858487-1.30879345 1.3087935-1.30879345zm-35.33742332 37.95501027c-.72278119 0-1.30879346-.5860123-1.30879346-1.3087935s.58601227-1.3087935 1.30879346-1.3087935c.72278118 0 1.30879345.5860123 1.30879345 1.3087935s-.58601227 1.3087935-1.30879345 1.3087935zm35.33742332 36.6462167c-.7227812 0-1.3087935-.5860123-1.3087935-1.3087934 0-.7227812.5860123-1.3087935 1.3087935-1.3087935s1.3087934.5860123 1.3087934 1.3087935c0 .7227811-.5860122 1.3087934-1.3087934 1.3087934zm0-19.6319018c-10.119591 0-18.3231084-8.2035174-18.3231084-18.3231084s8.2035174-18.3231084 18.3231084-18.3231084 18.3231084 8.2035174 18.3231084 18.3231084c-.0109612 10.1150102-8.2080982 18.3123108-18.3231084 18.3231084z"/></g></svg>