<?xml version="1.0" encoding="UTF-8"?> <svg xmlns="http://www.w3.org/2000/svg" width="201" height="48"><g fill="#FFF" fill-rule="evenodd"><path d="M25.944 34.393l-2 2.098-.243-.232c-3.42-3.513-4.994-7.182-4.994-11.243 0-3.254 1.532-6.644 4.293-10.013 2.388-2.914 5.662-5.757 9.365-8.224C35.8 4.49 39.441 2.64 42.568 1.584 46.067.402 48.765.222 50.336 1.45c.883.692 1.26 1.747 1.245 3.027-.012.978-.25 2.124-.692 3.47-.705 2.147-1.875 4.699-3.696 8.226-.242.47-.498.962-.786 1.51-.259.494-1.508 2.86-1.838 3.49a109.46 109.46 0 0 0-1.583 3.12c-.94 1.948-1.42 3.254-1.42 3.763 0 .605.212 1.56.636 2.85.341 1.04.674 1.918 1.533 4.109 1.161 2.96 1.65 4.312 2.012 5.726.245.953.37 1.764.357 2.47-.016.964-.287 1.776-.92 2.362-1.447 1.337-4.409 1.1-8.06-.165-3.444-1.192-6.985-3.177-9.554-5.464l-.326-.31 2-2.098.271.259c2.267 2.012 5.467 3.804 8.558 4.874 1.419.492 2.72.794 3.737.875.466.038.851.026 1.134-.026a1.38 1.38 0 0 0 .233-.062c.016-.068.027-.166.029-.293.007-.406-.081-.979-.267-1.702-.321-1.255-.788-2.546-1.86-5.278-.923-2.355-1.266-3.26-1.63-4.372-.514-1.56-.783-2.767-.783-3.755 0-1.117.565-2.652 1.71-5.024.433-.897.942-1.897 1.625-3.202.333-.637 1.583-3.005 1.84-3.494.284-.542.537-1.028.776-1.492 1.754-3.399 2.874-5.84 3.518-7.802.357-1.088.54-1.966.547-2.6.004-.266-.024-.466-.072-.599-.025-.07-.043-.096-.06-.11-.2-.156-.717-.258-1.518-.205-.946.063-2.153.335-3.536.802-2.873.971-6.29 2.707-9.523 4.861-7.452 4.965-12.367 10.963-12.367 15.825 0 3.278 1.26 6.223 4.115 9.164l.223.213zm-.92-23.126c.045.047.066.07.174.18L23.18 13.53a3.93 3.93 0 0 1-.213-.217c-3.575-3.22-8.065-6.141-12.154-7.981-1.944-.874-3.696-1.456-5.08-1.69-.655-.11-1.206-.14-1.63-.094-.33.036-.536.11-.633.19-.022.017-.046.053-.075.136-.051.148-.081.367-.078.653.008.668.193 1.585.553 2.72.645 2.035 1.766 4.563 3.521 8.084.24.48.493.983.778 1.544.256.507 1.506 2.957 1.84 3.616.682 1.35 1.19 2.384 1.623 3.312 1.14 2.44 1.701 4.023 1.701 5.158 0 1.01-.267 2.25-.777 3.857-.364 1.148-.707 2.085-1.63 4.52-1.073 2.83-1.54 4.168-1.863 5.472-.187.755-.276 1.356-.27 1.786.003.164.02.287.043.366.03.015.08.034.154.054.184.05.438.076.753.07.72-.016 1.666-.2 2.757-.546 2.34-.743 5.117-2.152 7.727-3.954 6.178-4.266 10.166-9.703 10.166-14.77 0-2.774-1.325-5.751-3.892-8.857l-.122-.14 1.99-2.098.328.345c2.985 3.598 4.595 7.198 4.595 10.75 0 3.303-1.27 6.596-3.576 9.74-1.994 2.717-4.726 5.264-7.842 7.416-2.837 1.958-5.87 3.497-8.496 4.33-2.953.938-5.268.988-6.58-.268-.623-.595-.887-1.414-.903-2.39-.011-.721.112-1.553.355-2.531.36-1.459.849-2.857 2.009-5.916.86-2.268 1.192-3.178 1.534-4.256.427-1.344.642-2.34.642-2.98 0-.546-.483-1.903-1.43-3.933a114.91 114.91 0 0 0-1.584-3.23c-.33-.653-1.579-3.1-1.838-3.612-.287-.567-.543-1.075-.786-1.561-1.818-3.648-2.987-6.285-3.69-8.503C.666 6.738.43 5.56.418 4.56.404 3.258.772 2.19 1.645 1.483c1.916-1.55 5.636-.92 10.357 1.204 4.38 1.97 9.144 5.073 13.021 8.58z" fill-rule="nonzero"></path><path d="M59.843 34.149a.959.959 0 0 1-.947-.947V15.237c0-.514.433-.946.947-.946h8.063c3.923 0 6.601 2.3 6.601 5.681 0 1.65-.487 2.976-1.46 3.923 1.46.947 2.38 2.489 2.38 4.6 0 3.3-2.49 5.654-7.061 5.654h-8.523zm2.976-11.823h5.087c1.704 0 2.245-.677 2.489-1.19.135-.271.19-.542.19-.866 0-1.515-.948-2.165-2.463-2.165H62.82v4.22zm0 8.008h5.763c1.948 0 2.95-.676 2.95-2.002 0-1.407-1.164-2.273-3.166-2.273h-5.547v4.275zm22.889 3.977c-5.032 0-8.55-3.706-8.55-8.874v-10.2c0-.514.406-.946.92-.946h2.084c.514 0 .92.432.92.946v10.254c0 3.003 1.677 4.924 4.626 4.924 2.84 0 4.653-1.812 4.653-4.924V15.237c0-.514.406-.946.893-.946h2.11c.514 0 .92.432.92.946v10.2c0 5.168-3.544 8.874-8.576 8.874zm18.18-.162a.941.941 0 0 1-.946-.947v-15.07h-5.33a.959.959 0 0 1-.947-.947v-1.948c0-.514.433-.946.947-.946h14.582c.514 0 .92.432.92.946v1.948c0 .514-.406.947-.92.947h-5.33v15.07a.959.959 0 0 1-.946.947h-2.03zm18.174 0a.941.941 0 0 1-.947-.947v-15.07h-5.33a.959.959 0 0 1-.947-.947v-1.948c0-.514.433-.946.947-.946h14.583c.514 0 .92.432.92.946v1.948c0 .514-.406.947-.92.947h-5.33v15.07a.959.959 0 0 1-.947.947h-2.03zm12.136 0a.959.959 0 0 1-.947-.947V15.237c0-.514.433-.946.947-.946h8.603c4.14 0 6.98 2.57 6.98 6.574 0 2.84-1.325 4.653-3.787 5.627l4.03 6.196c.109.162.136.324.136.514a.936.936 0 0 1-.92.947h-2.435a.908.908 0 0 1-.784-.433l-4.059-6.466h-4.788v5.952a.959.959 0 0 1-.947.947h-2.03zm2.976-10.714h5.275c2.084 0 3.436-.757 3.436-2.57 0-1.84-1.38-2.76-3.327-2.76h-5.384v5.33zm16.465-5.303c-.487 0-.92-.433-.92-.947v-1.948c0-.514.433-.946.92-.946h13.013c.487 0 .92.432.92.946v1.948c0 .514-.433.947-.92.947h-13.013zm0 16.017c-.487 0-.92-.433-.92-.947v-9.767c0-.541.433-.947.92-.947h11.795c.542 0 .974.406.974.947v2.002c0 .487-.432.92-.974.92h-8.82v6.845a.941.941 0 0 1-.946.947h-2.03zm17.21 0a.959.959 0 0 1-.947-.947V15.237c0-.514.433-.946.947-.946h2.03c.513 0 .946.432.946.946v15.07h8.847c.541 0 .947.433.947.947v1.948a.941.941 0 0 1-.947.947H170.85zm18.896 0a.959.959 0 0 1-.947-.947v-6.818l-7.386-10.605a.958.958 0 0 1 .785-1.488h2.462c.324 0 .595.162.784.405l5.303 7.63 5.303-7.63c.19-.243.46-.405.784-.405h2.462a.958.958 0 0 1 .785 1.488l-7.359 10.605v6.818a.959.959 0 0 1-.947.947h-2.029z"></path></g></svg> 