<svg height="32" viewBox="0 0 64 32" width="64" xmlns="http://www.w3.org/2000/svg" xmlns:xlink="http://www.w3.org/1999/xlink"><linearGradient id="a"><stop offset="0" stop-color="#14e4c8"/><stop offset="1" stop-color="#0a6cf5"/></linearGradient><linearGradient id="b" x1="50%" x2="50%" xlink:href="#a" y1="0%" y2="100%"/><linearGradient id="c" x1="50%" x2="50%" xlink:href="#a" y1="0%" y2="342.475244%"/><linearGradient id="d" x1="48.50734%" x2="48.50734%" xlink:href="#a" y1="-601.565547%" y2="1801.58264%"/><linearGradient id="e" x1="50%" x2="50%" xlink:href="#a" y1="-165.253674%" y2="178.507157%"/><linearGradient id="f" x1="50%" x2="50%" xlink:href="#a" y1="-115.417733%" y2="150.539521%"/><g fill="none" fill-rule="evenodd" transform="translate(.321915 .378889)"><path d="m48.2598668 9.15590726c-2.6148571 2.74024494-8.768 9.74889794-8.768 12.40816324 0 4.6811429 4.9802449 8.4897959 11.1020408 8.4897959s11.1020408-3.808653 11.1020408-8.4897959c0-2.6605714-6.1531428-9.6679183-8.768-12.40816324zm2.3340408 22.20408164c-6.8414694 0-12.4081632-4.3937959-12.4081632-9.7959184 0-3.7433469 8.3709387-12.52571426 9.3270204-13.51444895.1214694-.128.2912653-.19983674.4688979-.19983674h5.2244898c.1776327 0 .3474286.07183674.468898.19983674.9560816.98873469 9.3270204 9.77110205 9.3270204 13.51444895 0 5.4021225-5.5666939 9.7959184-12.4081633 9.7959184z" fill="url(#b)"/><path d="m48.2128464 7.84978481h4.7621225c1.9565714-1.59216326 4.9136326-4.4512653 5.0324898-5.81355102.0156734-.19069388-.0404898-.256-.0666123-.28473469-.4179592-.25338776-2.5338775.75363265-4.3546122 2.05714285-.1436735.1044898-.3317551.14628572-.5015511.11102041-.1763265-.03265306-.3304489-.13714285-.427102-.28734694-.7418776-1.14677551-1.7345306-2.25044898-2.0806531-2.31444898-.3134693.064-1.3061224 1.16767347-2.0466938 2.31444898-.0966531.15020409-.2507755.25469388-.4271021.28734694-.171102.03395919-.3578775-.00653061-.501551-.11102041-1.9970612-1.43020408-3.9849796-2.28048979-4.362449-2.05061224-.0182857.02220408-.074449.0875102-.0587755.27820408.1188572 1.36228572 3.0759184 4.22138776 5.0324898 5.81355102zm4.9933061 1.30612245h-5.2244898c-.1475918 0-.2925714-.05093877-.4075102-.14236735-.5603265-.448-5.4844081-4.44604081-5.6946938-6.86497959-.0431021-.48979592.0914285-.92604081.3879183-1.26171428 1.0853878-1.23167347 3.9222857.38269387 5.5431837 1.47722449.7431837-1.05795919 1.845551-2.35102041 2.7833469-2.35102041s2.0401633 1.29306122 2.783347 2.35102041c1.6208979-1.09322449 4.4564898-2.70889796 5.5431836-1.47722449.2964898.33567347.4310205.77191836.3879184 1.26171428-.2102857 2.41893878-5.1343673 6.41697959-5.6933877 6.86497959-.1162449.09142858-.2612245.14236735-.4088164.14236735z" fill="url(#c)"/><path d="m55.8183974 9.15590726h-10.4489796c-.3604898 0-.6530612-.29257143-.6530612-.65306122 0-.3604898.2925714-.65306123.6530612-.65306123h10.4489796c.3604898 0 .6530613.29257143.6530613.65306123 0 .36048979-.2925715.65306122-.6530613.65306122" fill="url(#d)"/><path d="m50.5912954 24.1763154c-1.7410612 0-3.1425306-1.0448979-3.2600816-2.432-.0300409-.3591836.2364081-.6752653.5955918-.7053061.3213061-.0404898.6765714.2337959.7053061.5955918.0574694.6804898.9364898 1.2355919 1.9591837 1.2355919 1.0644898 0 1.9617959-.5982041 1.9617959-1.3061225 0-.6360816-.619102-1.0475102-1.9461224-1.2917551l-.1436735-.0274285c-2.1185306-.3905307-3.1346939-1.257796-3.1346939-2.5991837 0-1.4406531 1.4654694-2.6122449 3.2679184-2.6122449 1.7410612 0 3.1425306 1.0448979 3.2600816 2.4306939.0300408.3604898-.2364082.6765714-.5955918.7066122-.3317551.0261225-.6765715-.235102-.7053062-.5955918-.0574693-.681796-.9364897-1.2355919-1.9591836-1.2355919-1.0631837 0-1.9617959.5982041-1.9617959 1.3061225 0 .6373877.6204081 1.0475102 1.9513469 1.2930612l.1436735.0274286c2.1159183.3905306 3.1294694 1.2577959 3.1294694 2.5978775 0 1.4406531-1.4654694 2.6122449-3.2679184 2.6122449" fill="url(#e)"/><path d="m50.6866265 25.4824379c-.3093089 0-.5603423-.2925715-.5603423-.6530613v-10.4489795c0-.3604898.2510334-.6530613.5603423-.6530613.309309 0 .5603424.2925715.5603424.6530613v10.4489795c0 .3604898-.2510334.6530613-.5603424.6530613" fill="url(#f)"/><g transform="translate(18.773438)"><path d="m10.2598668 9.15590726c-2.61485713 2.74024494-8.76799999 9.74889794-8.76799999 12.40816324 0 4.6811429 4.9802449 8.4897959 11.10204079 8.4897959 6.1217959 0 11.1020408-3.808653 11.1020408-8.4897959 0-2.6605714-6.1531428-9.6679183-8.768-12.40816324zm2.3340408 22.20408164c-6.84146936 0-12.40816323-4.3937959-12.40816323-9.7959184 0-3.7433469 8.37093877-12.52571426 9.3270204-13.51444895.12146939-.128.29126531-.19983674.46889796-.19983674h5.22448977c.1776327 0 .3474286.07183674.468898.19983674.9560816.98873469 9.3270204 9.77110205 9.3270204 13.51444895 0 5.4021225-5.5666939 9.7959184-12.4081633 9.7959184z" fill="url(#b)"/><path d="m10.2128464 7.84978481h4.7621225c1.9565714-1.59216326 4.9136326-4.4512653 5.0324898-5.81355102.0156734-.19069388-.0404898-.256-.0666123-.28473469-.4179592-.25338776-2.5338775.75363265-4.3546122 2.05714285-.1436735.1044898-.3317551.14628572-.5015511.11102041-.1763265-.03265306-.3304489-.13714285-.427102-.28734694-.7418776-1.14677551-1.7345306-2.25044898-2.0806531-2.31444898-.3134693.064-1.3061224 1.16767347-2.0466938 2.31444898-.0966531.15020409-.2507755.25469388-.4271021.28734694-.17110202.03395919-.35787753-.00653061-.501551-.11102041-1.99706122-1.43020408-3.98497959-2.28048979-4.36244898-2.05061224-.01828571.02220408-.07444898.0875102-.05877551.27820408.11885714 1.36228572 3.07591837 4.22138776 5.03248979 5.81355102zm4.9933061 1.30612245h-5.22448977c-.14759183 0-.29257143-.05093877-.4075102-.14236735-.56032653-.448-5.48440816-4.44604081-5.69469388-6.86497959-.04310204-.48979592.09142857-.92604081.38791837-1.26171428 1.08538775-1.23167347 3.92228571.38269387 5.54318367 1.47722449.74318371-1.05795919 1.84555101-2.35102041 2.78334691-2.35102041s2.0401633 1.29306122 2.783347 2.35102041c1.6208979-1.09322449 4.4564898-2.70889796 5.5431836-1.47722449.2964898.33567347.4310205.77191836.3879184 1.26171428-.2102857 2.41893878-5.1343673 6.41697959-5.6933877 6.86497959-.1162449.09142858-.2612245.14236735-.4088164.14236735z" fill="url(#c)"/><path d="m17.8183974 9.15590726h-10.44897956c-.3604898 0-.65306123-.29257143-.65306123-.65306122 0-.3604898.29257143-.65306123.65306123-.65306123h10.44897956c.3604898 0 .6530613.29257143.6530613.65306123 0 .36048979-.2925715.65306122-.6530613.65306122" fill="url(#d)"/><path d="m12.5912954 24.1763154c-1.7410612 0-3.14253063-1.0448979-3.26008165-2.432-.03004081-.3591836.23640817-.6752653.59559184-.7053061.32130611-.0404898.67657141.2337959.70530611.5955918.0574694.6804898.9364898 1.2355919 1.9591837 1.2355919 1.0644898 0 1.9617959-.5982041 1.9617959-1.3061225 0-.6360816-.619102-1.0475102-1.9461224-1.2917551l-.1436735-.0274285c-2.1185306-.3905307-3.13469389-1.257796-3.13469389-2.5991837 0-1.4406531 1.46546939-2.6122449 3.26791839-2.6122449 1.7410612 0 3.1425306 1.0448979 3.2600816 2.4306939.0300408.3604898-.2364082.6765714-.5955918.7066122-.3317551.0261225-.6765715-.235102-.7053062-.5955918-.0574693-.681796-.9364897-1.2355919-1.9591836-1.2355919-1.0631837 0-1.9617959.5982041-1.9617959 1.3061225 0 .6373877.6204081 1.0475102 1.9513469 1.2930612l.1436735.0274286c2.1159183.3905306 3.1294694 1.2577959 3.1294694 2.5978775 0 1.4406531-1.4654694 2.6122449-3.2679184 2.6122449" fill="url(#e)"/><path d="m12.6866265 25.4824379c-.3093089 0-.5603423-.2925715-.5603423-.6530613v-10.4489795c0-.3604898.2510334-.6530613.5603423-.6530613.309309 0 .5603424.2925715.5603424.6530613v10.4489795c0 .3604898-.2510334.6530613-.5603424.6530613" fill="url(#f)"/></g><g transform="translate(.195312)"><path d="m10.2598668 9.15590726c-2.61485713 2.74024494-8.76799999 9.74889794-8.76799999 12.40816324 0 4.6811429 4.9802449 8.4897959 11.10204079 8.4897959 6.1217959 0 11.1020408-3.808653 11.1020408-8.4897959 0-2.6605714-6.1531428-9.6679183-8.768-12.40816324zm2.3340408 22.20408164c-6.84146936 0-12.40816323-4.3937959-12.40816323-9.7959184 0-3.7433469 8.37093877-12.52571426 9.3270204-13.51444895.12146939-.128.29126531-.19983674.46889796-.19983674h5.22448977c.1776327 0 .3474286.07183674.468898.19983674.9560816.98873469 9.3270204 9.77110205 9.3270204 13.51444895 0 5.4021225-5.5666939 9.7959184-12.4081633 9.7959184z" fill="url(#b)"/><path d="m10.2128464 7.84978481h4.7621225c1.9565714-1.59216326 4.9136326-4.4512653 5.0324898-5.81355102.0156734-.19069388-.0404898-.256-.0666123-.28473469-.4179592-.25338776-2.5338775.75363265-4.3546122 2.05714285-.1436735.1044898-.3317551.14628572-.5015511.11102041-.1763265-.03265306-.3304489-.13714285-.427102-.28734694-.7418776-1.14677551-1.7345306-2.25044898-2.0806531-2.31444898-.3134693.064-1.3061224 1.16767347-2.0466938 2.31444898-.0966531.15020409-.2507755.25469388-.4271021.28734694-.17110202.03395919-.35787753-.00653061-.501551-.11102041-1.99706122-1.43020408-3.98497959-2.28048979-4.36244898-2.05061224-.01828571.02220408-.07444898.0875102-.05877551.27820408.11885714 1.36228572 3.07591837 4.22138776 5.03248979 5.81355102zm4.9933061 1.30612245h-5.22448977c-.14759183 0-.29257143-.05093877-.4075102-.14236735-.56032653-.448-5.48440816-4.44604081-5.69469388-6.86497959-.04310204-.48979592.09142857-.92604081.38791837-1.26171428 1.08538775-1.23167347 3.92228571.38269387 5.54318367 1.47722449.74318371-1.05795919 1.84555101-2.35102041 2.78334691-2.35102041s2.0401633 1.29306122 2.783347 2.35102041c1.6208979-1.09322449 4.4564898-2.70889796 5.5431836-1.47722449.2964898.33567347.4310205.77191836.3879184 1.26171428-.2102857 2.41893878-5.1343673 6.41697959-5.6933877 6.86497959-.1162449.09142858-.2612245.14236735-.4088164.14236735z" fill="url(#c)"/><path d="m17.8183974 9.15590726h-10.44897956c-.3604898 0-.65306123-.29257143-.65306123-.65306122 0-.3604898.29257143-.65306123.65306123-.65306123h10.44897956c.3604898 0 .6530613.29257143.6530613.65306123 0 .36048979-.2925715.65306122-.6530613.65306122" fill="url(#d)"/><path d="m12.5912954 24.1763154c-1.7410612 0-3.14253063-1.0448979-3.26008165-2.432-.03004081-.3591836.23640817-.6752653.59559184-.7053061.32130611-.0404898.67657141.2337959.70530611.5955918.0574694.6804898.9364898 1.2355919 1.9591837 1.2355919 1.0644898 0 1.9617959-.5982041 1.9617959-1.3061225 0-.6360816-.619102-1.0475102-1.9461224-1.2917551l-.1436735-.0274285c-2.1185306-.3905307-3.13469389-1.257796-3.13469389-2.5991837 0-1.4406531 1.46546939-2.6122449 3.26791839-2.6122449 1.7410612 0 3.1425306 1.0448979 3.2600816 2.4306939.0300408.3604898-.2364082.6765714-.5955918.7066122-.3317551.0261225-.6765715-.235102-.7053062-.5955918-.0574693-.681796-.9364897-1.2355919-1.9591836-1.2355919-1.0631837 0-1.9617959.5982041-1.9617959 1.3061225 0 .6373877.6204081 1.0475102 1.9513469 1.2930612l.1436735.0274286c2.1159183.3905306 3.1294694 1.2577959 3.1294694 2.5978775 0 1.4406531-1.4654694 2.6122449-3.2679184 2.6122449" fill="url(#e)"/><path d="m12.6866265 25.4824379c-.3093089 0-.5603423-.2925715-.5603423-.6530613v-10.4489795c0-.3604898.2510334-.6530613.5603423-.6530613.309309 0 .5603424.2925715.5603424.6530613v10.4489795c0 .3604898-.2510334.6530613-.5603424.6530613" fill="url(#f)"/></g></g></svg>